<?xml version="1.0" encoding="UTF-8"?>
<svg xmlns="http://www.w3.org/2000/svg" viewBox="0 0 640 360" width="640" height="360" role="img" aria-label="Live Line line chart"><rect x="0" y="0" width="640" height="360" fill="#fffdf7"/><text x="320" y="22" text-anchor="middle" fill="#1c1610" font-size="15" font-family="Palatino, Georgia, serif" font-weight="700">Live Line</text><line x1="52" x2="624" y1="265.7142857142857" y2="265.7142857142857" stroke="#e6dcc4" stroke-width="1"/><text x="46" y="269.7142857142857" text-anchor="end" fill="#6d5f50" font-size="10" font-family="Trebuchet MS, sans-serif">10</text><line x1="52" x2="624" y1="217.85714285714283" y2="217.85714285714283" stroke="#e6dcc4" stroke-width="1"/><text x="46" y="221.85714285714283" text-anchor="end" fill="#6d5f50" font-size="10" font-family="Trebuchet MS, sans-serif">15</text><line x1="52" x2="624" y1="170" y2="170" stroke="#e6dcc4" stroke-width="1"/><text x="46" y="174" text-anchor="end" fill="#6d5f50" font-size="10" font-family="Trebuchet MS, sans-serif">20</text><line x1="52" x2="624" y1="122.14285714285714" y2="122.14285714285714" stroke="#e6dcc4" stroke-width="1"/><text x="46" y="126.14285714285714" text-anchor="end" fill="#6d5f50" font-size="10" font-family="Trebuchet MS, sans-serif">25</text><line x1="52" x2="624" y1="74.2857142857143" y2="74.2857142857143" stroke="#e6dcc4" stroke-width="1"/><text x="46" y="78.2857142857143" text-anchor="end" fill="#6d5f50" font-size="10" font-family="Trebuchet MS, sans-serif">30</text><line x1="52" x2="624" y1="361.42857142857144" y2="361.42857142857144" stroke="#3b2f24" stroke-width="1.2"/><text x="147.33333333333331" y="332" text-anchor="middle" fill="#3b2f24" font-size="11" font-family="Trebuchet MS, sans-serif">Alpha</text><text x="338" y="332" text-anchor="middle" fill="#3b2f24" font-size="11" font-family="Trebuchet MS, sans-serif">Beta</text><text x="528.6666666666666" y="332" text-anchor="middle" fill="#3b2f24" font-size="11" font-family="Trebuchet MS, sans-serif">Total</text><path d="M147.33333333333331 304 L338 93.42857142857144 L528.6666666666666 36" fill="none" stroke="#8c2f39" stroke-width="2.4" stroke-linejoin="round" stroke-linecap="round"/><circle cx="147.33333333333331" cy="304" r="4.5" fill="#fffdf7" stroke="#8c2f39" stroke-width="2" data-addr="I2"/><circle cx="338" cy="93.42857142857144" r="4.5" fill="#fffdf7" stroke="#8c2f39" stroke-width="2" data-addr="I3"/><circle cx="528.6666666666666" cy="36" r="4.5" fill="#fffdf7" stroke="#8c2f39" stroke-width="2" data-addr="I4"/><path d="M147.33333333333331 284.85714285714283 L338 189.14285714285717 L528.6666666666666 112.57142857142856" fill="none" stroke="#C4782A" stroke-width="2.4" stroke-linejoin="round" stroke-linecap="round"/><circle cx="147.33333333333331" cy="284.85714285714283" r="4.5" fill="#fffdf7" stroke="#C4782A" stroke-width="2" data-addr="J2"/><circle cx="338" cy="189.14285714285717" r="4.5" fill="#fffdf7" stroke="#C4782A" stroke-width="2" data-addr="J3"/><circle cx="528.6666666666666" cy="112.57142857142856" r="4.5" fill="#fffdf7" stroke="#C4782A" stroke-width="2" data-addr="J4"/><rect x="52" y="342" width="10" height="10" fill="#8c2f39"/><text x="66" y="351" fill="#1c1610" font-size="11" font-family="Trebuchet MS, sans-serif">Current</text><rect x="126.80000000000001" y="342" width="10" height="10" fill="#C4782A"/><text x="140.8" y="351" fill="#1c1610" font-size="11" font-family="Trebuchet MS, sans-serif">Plan</text></svg>