<svg xmlns="http://www.w3.org/2000/svg" class="gantt-svg" font-family="Arial,sans-serif" width="1180" height="466" viewBox="0 0 1180 466" role="img" aria-label="Studio Launch Gantt. Working-day intervals; finishes are exclusive."><defs><marker id="export-arrow" markerWidth="6" markerHeight="6" refX="5" refY="3" orient="auto"><path d="M0 0L6 3L0 6" fill="#afbe9f"/></marker><pattern id="wait-hatch" width="5" height="5" patternUnits="userSpaceOnUse"><path d="M0 5L5 0" stroke="#e3c98c" stroke-width="1"/></pattern></defs><rect width="100%" height="100%" fill="#fff"/><text x="20" y="29" font-size="20" font-weight="600" fill="#285a47">Studio Launch</text><text x="20" y="50" font-size="11" fill="#78896d">Actual completion: 10 working days · 2026-09-21 | Dependency-only completion: 7 working days</text><rect x="0" y="72" width="1180" height="48" fill="#fcfdfb"/><rect x="0" y="120" width="1180" height="54" fill="#fdfefb"/><path d="M0 174H1180" stroke="#edf1e8"/><rect x="0" y="174" width="1180" height="54" fill="#fff"/><path d="M0 228H1180" stroke="#edf1e8"/><rect x="0" y="228" width="1180" height="54" fill="#fdfefb"/><path d="M0 282H1180" stroke="#edf1e8"/><rect x="0" y="282" width="1180" height="54" fill="#fff"/><path d="M0 336H1180" stroke="#edf1e8"/><rect x="0" y="336" width="1180" height="54" fill="#fdfefb"/><path d="M0 390H1180" stroke="#edf1e8"/><path d="M567 120V390" stroke="#edf1e7"/><text x="590" y="90" text-anchor="middle" font-size="8" fill="#9ca890">MON</text><text x="590" y="107" text-anchor="middle" font-size="10" fill="#758a65">07</text><path d="M613 120V390" stroke="#edf1e7"/><text x="636" y="90" text-anchor="middle" font-size="8" fill="#9ca890">TUE</text><text x="636" y="107" text-anchor="middle" font-size="10" fill="#758a65">08</text><path d="M659 120V390" stroke="#edf1e7"/><text x="682" y="90" text-anchor="middle" font-size="8" fill="#9ca890">WED</text><text x="682" y="107" text-anchor="middle" font-size="10" fill="#758a65">09</text><path d="M705 120V390" stroke="#edf1e7"/><text x="728" y="90" text-anchor="middle" font-size="8" fill="#9ca890">THU</text><text x="728" y="107" text-anchor="middle" font-size="10" fill="#758a65">10</text><path d="M751 120V390" stroke="#edf1e7"/><text x="774" y="90" text-anchor="middle" font-size="8" fill="#9ca890">FRI</text><text x="774" y="107" text-anchor="middle" font-size="10" fill="#758a65">11</text><path d="M797 120V390" stroke="#d2ddc8" stroke-dasharray="3 3"/><text x="820" y="90" text-anchor="middle" font-size="8" fill="#9ca890">MON</text><text x="820" y="107" text-anchor="middle" font-size="10" fill="#758a65">14</text><text x="797" y="116" text-anchor="middle" font-size="9" fill="#b0bda4"><title>Weekend skipped before 2026-09-14</title>∕∕</text><path d="M843 120V390" stroke="#edf1e7"/><text x="866" y="90" text-anchor="middle" font-size="8" fill="#9ca890">TUE</text><text x="866" y="107" text-anchor="middle" font-size="10" fill="#758a65">15</text><path d="M889 120V390" stroke="#edf1e7"/><text x="912" y="90" text-anchor="middle" font-size="8" fill="#9ca890">WED</text><text x="912" y="107" text-anchor="middle" font-size="10" fill="#758a65">16</text><path d="M935 120V390" stroke="#edf1e7"/><text x="958" y="90" text-anchor="middle" font-size="8" fill="#9ca890">THU</text><text x="958" y="107" text-anchor="middle" font-size="10" fill="#758a65">17</text><path d="M981 120V390" stroke="#edf1e7"/><text x="1004" y="90" text-anchor="middle" font-size="8" fill="#9ca890">FRI</text><text x="1004" y="107" text-anchor="middle" font-size="10" fill="#758a65">18</text><path d="M1027 120V390" stroke="#d2ddc8" stroke-dasharray="3 3"/><text x="1050" y="90" text-anchor="middle" font-size="8" fill="#9ca890">MON</text><text x="1050" y="107" text-anchor="middle" font-size="10" fill="#758a65">21</text><text x="1027" y="116" text-anchor="middle" font-size="9" fill="#b0bda4"><title>Weekend skipped before 2026-09-21</title>∕∕</text><path d="M1073 120V390" stroke="#edf1e7"/><text x="1096" y="90" text-anchor="middle" font-size="8" fill="#9ca890">TUE</text><text x="1096" y="107" text-anchor="middle" font-size="10" fill="#758a65">22</text><text x="17" y="100" font-size="10" fill="#91a083">TASK / WORKING DAYS</text><path class="dependency" data-from="T1" data-to="T2" d="M659 147H668V178H650V201H659" fill="none" stroke="#bfcbb6" stroke-width="1.15" marker-end="url(#export-arrow)"/><path class="dependency" data-from="T1" data-to="T3" d="M659 147H669V255H797" fill="none" stroke="#bfcbb6" stroke-width="1.15" marker-end="url(#export-arrow)"/><path class="dependency" data-from="T2" data-to="T4" d="M797 201H807V309H981" fill="none" stroke="#bfcbb6" stroke-width="1.15" marker-end="url(#export-arrow)"/><path class="dependency" data-from="T3" data-to="T4" d="M981 255H990V286H972V309H981" fill="none" stroke="#bfcbb6" stroke-width="1.15" marker-end="url(#export-arrow)"/><path class="dependency" data-from="T4" data-to="T5" d="M1027 309H1036V340H1018V363H1027" fill="none" stroke="#bfcbb6" stroke-width="1.15" marker-end="url(#export-arrow)"/><text x="17" y="139" font-size="11" fill="#4f6842">T1 · &lt;img src=x onerror=&quot;window.injected=true&quot;&gt;</text><text x="17" y="154" font-size="8" fill="#8a997c">2026-09-07 → 2026-09-09</text><g class="bar " data-id="T1"><title>T1 · &lt;img src=x onerror=&quot;window.injected=true&quot;&gt;
Actual [0, 2)
Start 2026-09-07
Exclusive finish 2026-09-09
Last working date 2026-09-08
Dependency-only float 0d</title><rect x="569" y="133" width="88" height="28" rx="5" fill="#dce9cb" stroke="#c2d7af" stroke-width="1"/><text class="bar-label" x="577" y="151" font-size="10" fill="#466039">&lt;img src… · 2d</text></g><text x="17" y="193" font-size="11" fill="#4f6842">T2 · Build, &quot;release&quot;
second line</text><text x="17" y="208" font-size="8" fill="#8a997c">2026-09-09 → 2026-09-14</text><g class="bar " data-id="T2"><title>T2 · Build, &quot;release&quot;
second line
Actual [2, 5)
Start 2026-09-09
Exclusive finish 2026-09-14
Last working date 2026-09-11
Dependency-only float 1d</title><rect x="661" y="187" width="134" height="28" rx="5" fill="#dce9cb" stroke="#c2d7af" stroke-width="1"/><text class="bar-label" x="669" y="205" font-size="10" fill="#466039">Build, &quot;release&quot;… · 3d</text></g><text x="17" y="247" font-size="11" fill="#4f6842">T3 · Documentation</text><text x="17" y="262" font-size="8" fill="#8a997c">2026-09-14 → 2026-09-18</text><rect x="659" y="252" width="138" height="8" rx="2" fill="url(#wait-hatch)"/><path d="M659 256H797" stroke="#dcc184" stroke-dasharray="2 3"/><g class="bar " data-id="T3"><title>T3 · Documentation
Actual [5, 9)
Start 2026-09-14
Exclusive finish 2026-09-18
Last working date 2026-09-17
Dependency-only float 0d</title><rect x="799" y="241" width="180" height="28" rx="5" fill="#dce9cb" stroke="#c2d7af" stroke-width="1"/><text class="bar-label" x="807" y="259" font-size="10" fill="#466039">Documentation · 4d</text><circle cx="972" cy="248" r="3" fill="#c9a052"/></g><text x="17" y="301" font-size="11" fill="#4f6842">T4 · Review</text><text x="17" y="316" font-size="8" fill="#8a997c">2026-09-18 → 2026-09-21</text><g class="bar " data-id="T4"><title>T4 · Review
Actual [9, 10)
Start 2026-09-18
Exclusive finish 2026-09-21
Last working date 2026-09-18
Dependency-only float 0d</title><rect x="983" y="295" width="42" height="28" rx="5" fill="#dbe9ec" stroke="#c1d8dc" stroke-width="1"/><text class="bar-label" x="991" y="313" font-size="10" fill="#466039">R…</text></g><text x="17" y="355" font-size="11" fill="#4f6842">T5 · Launch</text><text x="17" y="370" font-size="8" fill="#8a997c">2026-09-21 → 2026-09-21</text><g class="bar " data-id="T5"><title>T5 · Launch
Actual [10, 10)
Start 2026-09-21
Exclusive finish 2026-09-21
Milestone
Dependency-only float 0d</title><path d="M1027 354l10 10-10 10-10-10z" fill="#709b5a" stroke="#fff" stroke-width="2"/><text x="1043" y="368" font-size="10" fill="#748763">Launch</text></g><text x="20" y="418" font-size="11" fill="#6d805f">Legend: green = scheduled · diamond = milestone · amber hatch = resource wait · dotted blue = not-before · rose = dependency-critical (when enabled)</text><text x="20" y="437" font-size="11" fill="#6d805f">Working days only (Monday–Friday). ∕∕ marks a weekend break. Finish dates are exclusive boundaries; milestones occupy no capacity.</text><text x="20" y="456" font-size="10" fill="#8c9a80">Dependency-only CPM ignores resources and not-before dates. Labels show actual start → exclusive finish. Export includes all 5 tasks. Control characters are shown as Unicode escapes.</text></svg>